<?xml version="1.0" encoding="utf-8"?>
<!-- Generator: Adobe Illustrator 22.1.0, SVG Export Plug-In . SVG Version: 6.00 Build 0)  -->
<svg version="1.1" id="Capa_1" xmlns="http://www.w3.org/2000/svg" xmlns:xlink="http://www.w3.org/1999/xlink" x="0px" y="0px"
	 viewBox="0 0 481.2 143.5" style="enable-background:new 0 0 481.2 143.5;" xml:space="preserve">
<style type="text/css">
	.st0{fill:none;}
	.st1{fill:#EE7788;stroke:#000000;stroke-width:1.9711;stroke-miterlimit:10;}
	.st2{fill:#F6F6F6;}
	.st3{fill:#FFFFFF;}
	.st4{fill:#EE7788;}
	.st5{fill:#E6332A;}
	.st6{fill:#CA9E69;stroke:#000000;stroke-width:1.9711;stroke-miterlimit:10;}
	.st7{fill:#8973B2;stroke:#000000;stroke-width:1.9711;stroke-miterlimit:10;}
	.st8{fill:#E4003F;stroke:#000000;stroke-width:1.6187;stroke-miterlimit:10;}
	.st9{fill:#FFEE4B;stroke:#000000;stroke-width:1.9711;stroke-miterlimit:10;}
	.st10{fill:#F6F6F6;stroke:#000000;stroke-width:1.9711;stroke-miterlimit:10;}
	.st11{fill:#36A9E1;stroke:#000000;stroke-width:1.9711;stroke-miterlimit:10;}
	.st12{fill-rule:evenodd;clip-rule:evenodd;stroke:#000000;stroke-width:1.8909;stroke-miterlimit:10;}
	.st13{fill-rule:evenodd;clip-rule:evenodd;fill:#F6F6F6;stroke:#000000;stroke-width:1.8909;stroke-miterlimit:10;}
</style>
<g>
	<path d="M85.1,121.9c1,0,1.8,0.3,2.4,0.9c0.6,0.6,0.9,1.3,0.9,2.3c0,0.5-0.1,1-0.3,1.5c-0.2,0.5-0.5,0.9-0.9,1.2
		c-0.4,0.3-0.9,0.5-1.5,0.5l-0.1-0.2c0.5,0,0.9,0.1,1.4,0.2c0.4,0.1,0.8,0.4,1.1,0.6c0.3,0.3,0.6,0.6,0.7,1.1
		c0.2,0.4,0.3,0.9,0.3,1.5c0,0.6-0.1,1.1-0.3,1.6c-0.2,0.4-0.5,0.8-0.8,1.1c-0.3,0.3-0.8,0.5-1.2,0.7c-0.5,0.1-1,0.2-1.5,0.2h-5.2
		c-0.1,0-0.2,0-0.3-0.1c-0.1-0.1-0.1-0.2-0.1-0.3v-12.4c0-0.1,0-0.2,0.1-0.3c0.1-0.1,0.2-0.1,0.3-0.1H85.1z M85,122.7h-4.7l0.2-0.4
		v5.9l-0.2-0.3H85c0.7,0,1.4-0.3,1.9-0.7c0.5-0.5,0.7-1.2,0.7-2.1c0-0.7-0.2-1.3-0.7-1.7C86.5,122.9,85.8,122.7,85,122.7z
		 M85.1,128.7h-4.7l0.1-0.1v5.8l-0.1-0.2h4.8c0.9,0,1.6-0.2,2.2-0.7c0.6-0.4,0.9-1.2,0.9-2.1c0-0.6-0.1-1.2-0.4-1.6
		c-0.3-0.4-0.6-0.7-1.1-0.9C86.2,128.8,85.7,128.7,85.1,128.7z"/>
	<path d="M104.5,121.8c0.1,0,0.2,0,0.3,0.1c0.1,0.1,0.1,0.2,0.1,0.2c0,0.1,0,0.1,0,0.1c0,0,0,0.1-0.1,0.1l-4.4,6l0.2-0.5v6.7
		c0,0.1,0,0.2-0.1,0.3c-0.1,0.1-0.2,0.1-0.3,0.1c-0.1,0-0.2,0-0.3-0.1c-0.1-0.1-0.1-0.2-0.1-0.3v-6.6l0.1,0.4l-4.4-6
		c0,0,0-0.1-0.1-0.1c0,0,0-0.1,0-0.1c0-0.1,0-0.2,0.1-0.3c0.1-0.1,0.2-0.1,0.3-0.1c0.1,0,0.2,0.1,0.3,0.2l4.2,5.7l-0.2,0l4.1-5.6
		C104.3,121.9,104.4,121.8,104.5,121.8z"/>
	<path d="M139.6,134.3c0.1,0,0.2,0,0.3,0.1c0.1,0.1,0.1,0.2,0.1,0.3c0,0.1,0,0.2-0.1,0.3c-0.1,0.1-0.2,0.1-0.3,0.1h-6.9
		c-0.1,0-0.2,0-0.3-0.1c-0.1-0.1-0.1-0.2-0.1-0.3v-12.4c0-0.1,0-0.2,0.1-0.3c0.1-0.1,0.2-0.1,0.3-0.1s0.2,0,0.3,0.1
		c0.1,0.1,0.1,0.2,0.1,0.3v12.3l-0.3-0.3H139.6z"/>
	<path d="M156.5,121.9c0.1,0,0.2,0,0.3,0.1c0.1,0.1,0.1,0.2,0.1,0.3v8.1c0,0.9-0.2,1.7-0.7,2.4c-0.4,0.7-1,1.3-1.7,1.8
		c-0.7,0.4-1.5,0.7-2.4,0.7c-0.9,0-1.7-0.2-2.4-0.7c-0.7-0.4-1.3-1-1.7-1.8c-0.4-0.7-0.7-1.5-0.7-2.4v-8.1c0-0.1,0-0.2,0.1-0.3
		c0.1-0.1,0.2-0.1,0.3-0.1c0.1,0,0.2,0,0.3,0.1c0.1,0.1,0.1,0.2,0.1,0.3v8.1c0,0.7,0.2,1.4,0.5,2c0.4,0.6,0.9,1.1,1.5,1.5
		c0.6,0.4,1.3,0.6,2,0.6c0.7,0,1.4-0.2,2-0.6c0.6-0.4,1.1-0.9,1.5-1.5c0.4-0.6,0.6-1.3,0.6-2v-8.1c0-0.1,0-0.2,0.1-0.3
		C156.3,122,156.4,121.9,156.5,121.9z"/>
	<path d="M174.5,121.9c0.2,0,0.3,0,0.3,0.1c0.1,0.1,0.1,0.2,0.1,0.3c0,0.1,0,0.2-0.1,0.2l-8.9,12l0-0.2h8.6c0.1,0,0.2,0,0.3,0.1
		c0.1,0.1,0.1,0.2,0.1,0.2c0,0.1,0,0.2-0.1,0.3c-0.1,0.1-0.2,0.1-0.3,0.1h-9.2c-0.1,0-0.2,0-0.3-0.1c-0.1-0.1-0.1-0.2-0.1-0.3
		c0-0.1,0-0.2,0.1-0.2l8.9-11.8l0.1,0.1h-8.3c-0.1,0-0.2,0-0.3-0.1c-0.1-0.1-0.1-0.2-0.1-0.2c0-0.1,0-0.2,0.1-0.3
		c0.1-0.1,0.2-0.1,0.3-0.1H174.5z"/>
	<path d="M183.1,121.9c0.1,0,0.1,0,0.2,0c0.1,0,0.1,0.1,0.2,0.1l5.4,8h-0.4l5.4-8c0.1-0.1,0.2-0.2,0.4-0.2c0.1,0,0.2,0.1,0.2,0.1
		c0.1,0.1,0.1,0.2,0.1,0.3v12.4c0,0.1,0,0.2-0.1,0.3c-0.1,0.1-0.2,0.1-0.3,0.1c-0.1,0-0.2,0-0.3-0.1c-0.1-0.1-0.1-0.2-0.1-0.3v-11.5
		h0.2l-5,7.6c0,0-0.1,0.1-0.1,0.1c0,0-0.1,0-0.2,0c-0.1,0-0.1,0-0.2,0c-0.1,0-0.1-0.1-0.1-0.1l-5.1-7.8h0.3v11.7
		c0,0.1,0,0.2-0.1,0.3c-0.1,0.1-0.2,0.1-0.3,0.1c-0.1,0-0.2,0-0.3-0.1c-0.1-0.1-0.1-0.2-0.1-0.3v-12.4c0-0.1,0-0.2,0.1-0.3
		C182.9,122,183,121.9,183.1,121.9z"/>
	<path d="M207.6,122.9l-4.7,11.9c0,0.1-0.1,0.1-0.1,0.2c-0.1,0-0.1,0.1-0.2,0.1c-0.1,0-0.2,0-0.3-0.1c-0.1-0.1-0.1-0.1-0.1-0.2
		c0-0.1,0-0.1,0-0.2l5-12.4c0-0.1,0.1-0.2,0.1-0.2c0.1,0,0.1,0,0.2,0c0.1,0,0.2,0,0.2,0.1c0.1,0,0.1,0.1,0.1,0.2l5,12.4
		c0,0,0,0.1,0,0.2c0,0.1,0,0.2-0.1,0.3c-0.1,0.1-0.2,0.1-0.3,0.1c-0.1,0-0.2,0-0.2-0.1c-0.1,0-0.1-0.1-0.1-0.2l-4.9-12.1
		L207.6,122.9z M204.1,131l0.3-0.7h6.1l0.2,0.7H204.1z"/>
	<path d="M220.9,135c-0.1,0-0.2,0-0.3-0.1c-0.1-0.1-0.1-0.2-0.1-0.3v-12.4c0-0.1,0-0.2,0.1-0.3c0.1-0.1,0.2-0.1,0.3-0.1h4.9
		c0.7,0,1.4,0.1,1.9,0.4c0.6,0.3,1,0.7,1.3,1.2c0.3,0.5,0.5,1.1,0.5,1.7c0,0.6-0.1,1.1-0.3,1.6c-0.2,0.5-0.5,0.8-0.9,1.2
		c-0.4,0.3-0.8,0.5-1.3,0.7l-0.9-0.1c0.5,0,1,0.1,1.4,0.4c0.4,0.3,0.8,0.6,1.1,1.1c0.3,0.5,0.4,1.1,0.4,1.8c0,0.6,0,1.1,0.1,1.4
		c0.1,0.3,0.1,0.6,0.2,0.7c0.1,0.2,0.2,0.3,0.3,0.4c0.1,0.1,0.1,0.1,0.2,0.2c0,0.1,0,0.2,0,0.3c0,0.1-0.1,0.1-0.1,0.2
		c-0.1,0-0.1,0.1-0.2,0.1c-0.1,0-0.1,0-0.2,0c-0.2-0.1-0.3-0.2-0.5-0.4c-0.2-0.2-0.3-0.5-0.4-0.9c-0.1-0.4-0.2-1-0.2-1.8
		c0-0.6-0.1-1.1-0.3-1.4c-0.2-0.3-0.4-0.6-0.7-0.8c-0.3-0.2-0.6-0.3-0.9-0.4c-0.3-0.1-0.6-0.1-0.9-0.1h-4.5l0.2-0.2v5.7
		c0,0.1,0,0.2-0.1,0.3C221.1,135,221,135,220.9,135z M221.1,128.4h4.8c0.5,0,1-0.2,1.4-0.4c0.4-0.2,0.8-0.6,1-1
		c0.3-0.4,0.4-1,0.4-1.6c0-0.8-0.3-1.4-0.8-1.9c-0.5-0.5-1.3-0.8-2.2-0.8h-4.5l0.1-0.1v6.1L221.1,128.4z"/>
	<path d="M258,121.9c0.7,0,1.3,0.1,1.9,0.4c0.5,0.3,0.9,0.7,1.2,1.3c0.3,0.5,0.4,1.2,0.4,1.9c0,0.7-0.1,1.3-0.4,1.9
		c-0.3,0.6-0.7,1-1.2,1.3c-0.5,0.3-1.1,0.5-1.9,0.5h-4.2l0.1-0.1v5.6c0,0.1,0,0.2-0.1,0.3c-0.1,0.1-0.2,0.1-0.3,0.1
		c-0.1,0-0.2,0-0.3-0.1c-0.1-0.1-0.1-0.2-0.1-0.3v-12.4c0-0.1,0-0.2,0.1-0.3c0.1-0.1,0.2-0.1,0.3-0.1H258z M258,128.4
		c0.6,0,1.1-0.1,1.5-0.4c0.4-0.3,0.7-0.6,0.9-1.1c0.2-0.4,0.3-1,0.3-1.5c0-0.6-0.1-1.1-0.3-1.5c-0.2-0.4-0.5-0.7-0.9-1
		c-0.4-0.2-0.9-0.4-1.5-0.4h-4.1l0.1-0.1v5.9l-0.1-0.1H258z"/>
	<path d="M269.7,121.9h7.1c0.1,0,0.2,0,0.3,0.1c0.1,0.1,0.1,0.2,0.1,0.3c0,0.1,0,0.2-0.1,0.3c-0.1,0.1-0.2,0.1-0.3,0.1h-6.8l0.2-0.3
		v5.8l-0.2-0.3h6c0.1,0,0.2,0,0.3,0.1c0.1,0.1,0.1,0.2,0.1,0.3c0,0.1,0,0.2-0.1,0.3c-0.1,0.1-0.2,0.1-0.3,0.1h-6l0.2-0.2v5.9
		l-0.1-0.1h6.7c0.1,0,0.2,0,0.3,0.1c0.1,0.1,0.1,0.2,0.1,0.3c0,0.1,0,0.2-0.1,0.3c-0.1,0.1-0.2,0.1-0.3,0.1h-7.1
		c-0.1,0-0.2,0-0.3-0.1c-0.1-0.1-0.1-0.2-0.1-0.3v-12.4c0-0.1,0-0.2,0.1-0.3C269.5,122,269.6,121.9,269.7,121.9z"/>
	<path d="M294.4,121.9c0.1,0,0.2,0,0.3,0.1c0.1,0.1,0.1,0.2,0.1,0.3v12.3c0,0.1,0,0.2-0.1,0.3c-0.1,0.1-0.2,0.1-0.3,0.1
		c0,0-0.1,0-0.2,0c-0.1,0-0.1-0.1-0.1-0.1l-8.7-11.9l0.3-0.1v11.8c0,0.1,0,0.2-0.1,0.2c-0.1,0.1-0.2,0.1-0.3,0.1
		c-0.1,0-0.2,0-0.3-0.1c-0.1-0.1-0.1-0.1-0.1-0.2v-12.4c0-0.1,0-0.2,0.1-0.3c0.1-0.1,0.1-0.1,0.2-0.1c0,0,0.1,0,0.1,0
		c0,0,0.1,0.1,0.1,0.1l8.6,11.8l-0.2,0.4v-11.9c0-0.1,0-0.2,0.1-0.3C294.3,122,294.4,121.9,294.4,121.9z M287.5,120.4
		c-0.1,0-0.2-0.1-0.2-0.2c0-0.1,0-0.3,0-0.5c0.1-0.4,0.3-0.7,0.6-0.9c0.3-0.2,0.6-0.3,0.9-0.3c0.3,0,0.5,0.1,0.8,0.3
		c0.3,0.2,0.6,0.4,0.9,0.5c0.3,0.2,0.5,0.3,0.7,0.3c0.2,0,0.3-0.1,0.5-0.2c0.1-0.2,0.2-0.4,0.2-0.6c0-0.1,0-0.2,0.1-0.2
		c0.1-0.1,0.1-0.1,0.2-0.1c0.1,0,0.2,0.1,0.3,0.2c0,0.1,0,0.3,0,0.5c-0.1,0.3-0.2,0.5-0.3,0.7c-0.1,0.2-0.3,0.3-0.5,0.4
		c-0.2,0.1-0.4,0.1-0.6,0.1c-0.2,0-0.5-0.1-0.8-0.3c-0.3-0.2-0.6-0.3-0.9-0.5c-0.3-0.2-0.5-0.3-0.7-0.3c-0.2,0-0.4,0.1-0.5,0.2
		c-0.1,0.1-0.3,0.3-0.3,0.6c0,0.1-0.1,0.2-0.1,0.2C287.6,120.4,287.6,120.4,287.5,120.4z"/>
	<path d="M307.8,122.9l-4.7,11.9c0,0.1-0.1,0.1-0.1,0.2c-0.1,0-0.1,0.1-0.2,0.1c-0.1,0-0.2,0-0.3-0.1c-0.1-0.1-0.1-0.1-0.1-0.2
		c0-0.1,0-0.1,0-0.2l5-12.4c0-0.1,0.1-0.2,0.1-0.2c0.1,0,0.1,0,0.2,0c0.1,0,0.2,0,0.2,0.1c0.1,0,0.1,0.1,0.1,0.2l5,12.4
		c0,0,0,0.1,0,0.2c0,0.1,0,0.2-0.1,0.3c-0.1,0.1-0.2,0.1-0.3,0.1c-0.1,0-0.2,0-0.2-0.1c-0.1,0-0.1-0.1-0.1-0.2l-4.9-12.1
		L307.8,122.9z M304.4,131l0.3-0.7h6.1l0.2,0.7H304.4z"/>
	<path d="M321.2,135c-0.1,0-0.2,0-0.3-0.1c-0.1-0.1-0.1-0.2-0.1-0.3v-12.4c0-0.1,0-0.2,0.1-0.3c0.1-0.1,0.2-0.1,0.3-0.1h4.9
		c0.7,0,1.4,0.1,1.9,0.4c0.6,0.3,1,0.7,1.3,1.2c0.3,0.5,0.5,1.1,0.5,1.7c0,0.6-0.1,1.1-0.3,1.6c-0.2,0.5-0.5,0.8-0.9,1.2
		c-0.4,0.3-0.8,0.5-1.3,0.7l-0.9-0.1c0.5,0,1,0.1,1.4,0.4c0.4,0.3,0.8,0.6,1.1,1.1c0.3,0.5,0.4,1.1,0.4,1.8c0,0.6,0,1.1,0.1,1.4
		c0.1,0.3,0.1,0.6,0.2,0.7c0.1,0.2,0.2,0.3,0.3,0.4c0.1,0.1,0.1,0.1,0.2,0.2c0,0.1,0,0.2,0,0.3c0,0.1-0.1,0.1-0.1,0.2
		c-0.1,0-0.1,0.1-0.2,0.1c-0.1,0-0.1,0-0.2,0c-0.2-0.1-0.3-0.2-0.5-0.4c-0.2-0.2-0.3-0.5-0.4-0.9c-0.1-0.4-0.2-1-0.2-1.8
		c0-0.6-0.1-1.1-0.3-1.4c-0.2-0.3-0.4-0.6-0.7-0.8c-0.3-0.2-0.6-0.3-0.9-0.4c-0.3-0.1-0.6-0.1-0.9-0.1h-4.5l0.2-0.2v5.7
		c0,0.1,0,0.2-0.1,0.3C321.4,135,321.3,135,321.2,135z M321.4,128.4h4.8c0.5,0,1-0.2,1.4-0.4c0.4-0.2,0.8-0.6,1-1
		c0.3-0.4,0.4-1,0.4-1.6c0-0.8-0.3-1.4-0.8-1.9c-0.5-0.5-1.3-0.8-2.2-0.8h-4.5l0.1-0.1v6.1L321.4,128.4z"/>
	<path d="M342.5,122.9l-4.7,11.9c0,0.1-0.1,0.1-0.1,0.2c-0.1,0-0.1,0.1-0.2,0.1c-0.1,0-0.2,0-0.3-0.1c-0.1-0.1-0.1-0.1-0.1-0.2
		c0-0.1,0-0.1,0-0.2l5-12.4c0-0.1,0.1-0.2,0.1-0.2c0.1,0,0.1,0,0.2,0c0.1,0,0.2,0,0.2,0.1c0.1,0,0.1,0.1,0.1,0.2l5,12.4
		c0,0,0,0.1,0,0.2c0,0.1,0,0.2-0.1,0.3c-0.1,0.1-0.2,0.1-0.3,0.1c-0.1,0-0.2,0-0.2-0.1c-0.1,0-0.1-0.1-0.1-0.2l-4.9-12.1
		L342.5,122.9z M339.1,131l0.3-0.7h6.1l0.2,0.7H339.1z"/>
	<path d="M364.9,121.9c0.1,0,0.2,0,0.3,0.1c0.1,0.1,0.1,0.2,0.1,0.3v12.3c0,0.1,0,0.2-0.1,0.3c-0.1,0.1-0.2,0.1-0.3,0.1
		c-0.1,0-0.1,0-0.2,0c-0.1,0-0.1-0.1-0.1-0.1l-8.7-11.9l0.3-0.1v11.8c0,0.1,0,0.2-0.1,0.2c-0.1,0.1-0.2,0.1-0.3,0.1
		c-0.1,0-0.2,0-0.3-0.1c-0.1-0.1-0.1-0.1-0.1-0.2v-12.4c0-0.1,0-0.2,0.1-0.3c0.1-0.1,0.1-0.1,0.2-0.1c0,0,0.1,0,0.1,0
		c0.1,0,0.1,0.1,0.1,0.1l8.6,11.8l-0.1,0.4v-11.9c0-0.1,0-0.2,0.1-0.3C364.8,122,364.8,121.9,364.9,121.9z"/>
	<path d="M379.3,121.9c0.9,0,1.7,0.2,2.4,0.5c0.7,0.4,1.3,0.8,1.7,1.5c0.4,0.6,0.8,1.3,1,2.1c0.2,0.8,0.3,1.6,0.3,2.5
		c0,1.2-0.2,2.3-0.6,3.3c-0.4,1-1,1.8-1.8,2.4c-0.8,0.6-1.8,0.9-3.1,0.9h-4.9c-0.1,0-0.2,0-0.3-0.1c-0.1-0.1-0.1-0.2-0.1-0.3v-12.4
		c0-0.1,0-0.2,0.1-0.3c0.1-0.1,0.2-0.1,0.3-0.1H379.3z M379.1,134.3c1.1,0,2.1-0.3,2.8-0.8c0.7-0.5,1.2-1.2,1.6-2.1
		c0.3-0.9,0.5-1.9,0.5-2.9c0-0.8-0.1-1.5-0.3-2.2c-0.2-0.7-0.5-1.3-0.9-1.9c-0.4-0.5-0.9-1-1.5-1.3c-0.6-0.3-1.3-0.5-2.2-0.5h-4.4
		l0.1-0.2v11.9l-0.1-0.2H379.1z"/>
	<path d="M396.9,122.9l-4.7,11.9c0,0.1-0.1,0.1-0.1,0.2c-0.1,0-0.1,0.1-0.2,0.1c-0.1,0-0.2,0-0.3-0.1c-0.1-0.1-0.1-0.1-0.1-0.2
		c0-0.1,0-0.1,0-0.2l5-12.4c0-0.1,0.1-0.2,0.1-0.2c0.1,0,0.1,0,0.2,0c0.1,0,0.2,0,0.2,0.1c0.1,0,0.1,0.1,0.1,0.2l5,12.4
		c0,0,0,0.1,0,0.2c0,0.1,0,0.2-0.1,0.3c-0.1,0.1-0.2,0.1-0.3,0.1c-0.1,0-0.2,0-0.2-0.1c-0.1,0-0.1-0.1-0.1-0.2l-4.9-12.1
		L396.9,122.9z M393.4,131l0.3-0.7h6.1l0.2,0.7H393.4z"/>
</g>
<line class="st0" x1="320.4" y1="103.8" x2="320.4" y2="104.4"/>
<path class="st1" d="M191.4,50l-7.8-0.5v16.7c0,2.2,0.3,3.7,1,4.7c0.7,1,2,1.4,3.9,1.4c1.9,0,3.3,0.1,4.3,0.2c1,0.1,2.1,0.5,3.2,1.1
	c1.9,1,2.8,3.7,2.8,8.1c0,5.1-1.1,8.2-3.4,9.3c-1.2,0.6-2.3,0.9-3.2,1c-0.9,0.1-2.3,0.2-4,0.2c-8.4,0-14.7-1.9-19.1-5.7
	c-4.3-3.8-6.5-10.2-6.5-19.2V49.6c-1.5,0.2-3.2,0.4-5,0.4c-1.8,0-3.2-0.7-4.4-2.1c-1.2-1.4-1.8-3.7-1.8-7c0-3.3,0.2-5.7,0.6-7.2
	c0.4-1.5,1-2.6,1.7-3.2c1.3-1,2.9-1.6,4.8-1.6l4,0.5V17c0-1.9,0.1-3.2,0.2-4.1c0.1-0.9,0.5-1.9,1.1-2.9c1-2,4.1-3,9.3-3
	c5.5,0,8.7,1.5,9.8,4.5c0.4,1.3,0.6,3.3,0.6,6.2v11.8c3.5-0.3,6.2-0.5,8-0.5c1.8,0,3.2,0.1,4.1,0.2c0.9,0.1,2,0.5,3.2,1.1
	c2.1,1,3.1,4.1,3.1,9.3c0,5.1-1.1,8.2-3.3,9.3c-1.2,0.6-2.3,0.9-3.2,1C194.6,50,193.2,50,191.4,50z"/>
<path class="st1" d="M289.4,36.5c6.8-6.3,14.5-9.4,23.2-9.4c8.7,0,16.4,3.1,23.1,9.4c6.7,6.2,10,14.2,10,23.8
	c0,6.7-1.7,12.6-5.2,17.8c-3.5,5.2-7.7,9-12.6,11.5c-5,2.5-10.1,3.7-15.4,3.7c-5.3,0-10.5-1.3-15.5-3.9c-5-2.6-9.2-6.5-12.6-11.6
	c-3.4-5.1-5.1-10.9-5.1-17.3C279.3,50.8,282.6,42.8,289.4,36.5z M304.5,69.1c2.6,2,5.2,3,7.8,3c2.7,0,5.3-1,8-3c2.7-2,4-5,4-8.9
	c0-3.9-1.2-6.9-3.7-8.8c-2.5-1.9-5.2-2.9-8.1-2.9c-2.9,0-5.6,1-8.1,3c-2.5,2-3.7,5-3.7,8.9C300.6,64.2,301.9,67.1,304.5,69.1z"/>
<path class="st2" d="M324,50.3c-2.8-2.1-5.7-3.2-8.9-3.2c-0.4,0-0.9,0-1.3,0.1c2.7,0.3,5.3,1.3,7.6,3.1c2.8,2.1,4.1,5.4,4.1,9.7
	c0,4.4-1.5,7.6-4.4,9.9c-2.5,1.9-5,3-7.5,3.3c0.4,0,0.9,0.1,1.3,0.1c2.9,0,5.9-1.1,8.8-3.3c2.9-2.2,4.4-5.5,4.4-9.9
	C328.1,55.7,326.7,52.5,324,50.3z"/>
<path class="st2" d="M300.9,88.2c-4.8-2.5-8.8-6.2-12.1-11.1c-3.3-4.9-4.9-10.4-4.9-16.6c0-9.3,3.2-16.9,9.7-22.9
	c6-5.6,12.9-8.6,20.5-9c-0.6,0-1.2,0-1.8,0c-8.3,0-15.8,3-22.2,9c-6.5,6-9.7,13.7-9.7,22.9c0,6.2,1.6,11.7,4.9,16.6
	c3.3,4.9,7.3,8.6,12.1,11.1c4.8,2.5,9.7,3.8,14.8,3.8c0.6,0,1.2,0,1.8-0.1C309.6,91.6,305.2,90.4,300.9,88.2z"/>
<path class="st1" d="M57.9,10.1l32.6,67.4c1.4,2.7,2.1,4.8,2.1,6.2c0,2.9-2.3,5.5-7,7.8c-2.7,1.4-4.9,2.1-6.5,2.1
	c-1.6,0-2.9-0.4-3.9-1.1c-1-0.7-1.7-1.5-2.2-2.3c-0.4-0.8-1.1-2-1.9-3.6l-6.3-13H31.5l-6.3,13c-0.8,1.6-1.4,2.8-1.9,3.5
	c-0.4,0.7-1.2,1.5-2.2,2.2c-1,0.8-2.3,1.1-3.9,1.1c-1.6,0-3.7-0.7-6.5-2.1c-4.7-2.3-7-4.8-7-7.7c0-1.4,0.7-3.4,2.1-6.2L38.5,10
	c0.9-1.9,2.2-3.3,4-4.5c1.8-1.1,3.7-1.7,5.7-1.7C52.6,3.8,55.9,5.9,57.9,10.1z M48.2,39.1l-8,16.5h16.1L48.2,39.1z"/>
<g>
	<path class="st3" d="M15.4,90.4c-4.7-2.4-6.6-3.7-6.6-6.6c0-1.4,0.7-3.4,2.1-6.2l32.1-66.4c0.9-1.9,1.9-3.4,3.7-4.5
		c1.3-0.8,2.3-1.3,3.5-1.5C49.5,5.1,48.9,5,48.2,5c-2,0-3.4,0.5-5.2,1.7c-1.8,1.1-2.8,2.7-3.7,4.5L7.2,77.6
		c-1.4,2.7-2.1,4.8-2.1,6.2c0,2.9,1.9,4.2,6.6,6.6c2.7,1.4,3.4,1.7,4.7,1.9c0.9,0.1,1.8,0,2.6-0.2C18.2,91.8,17.4,91.4,15.4,90.4z"
		/>
	<path class="st3" d="M79.6,91.5c-1-0.7-1.6-1.4-2.1-2.2c-0.4-0.8-1.1-2-1.9-3.6l-6.4-13.4h-3.6l6.4,13.4c0.8,1.6,1.4,2.8,1.9,3.6
		c0.4,0.8,1,1.5,2.1,2.2c1,0.7,2.1,1,3.5,0.9c0.5-0.1,0.9-0.1,1.4-0.2C80.5,92,80,91.8,79.6,91.5z"/>
</g>
<g>
	<g>
		<path class="st4" d="M142.5,29.4c1.5,0.5,2.8,1.3,3.8,2.5c1,1.2,1.5,3,1.5,5.6c0,2.6-0.8,5.4-2.3,8.5c-1.5,3.1-3.7,4.6-6.6,4.6
			c-1.4,0-2.8-0.3-4.2-1c-1.3-0.6-3.1-1-5.3-1c-2.2,0-4.2,0.8-6.1,2.3c-1.9,1.5-2.8,3.4-2.8,5.6v25.4c0,1.9-0.1,3.2-0.2,4.2
			c-0.1,0.9-0.5,2-1.1,3.2c-1.2,2.1-4.3,3.1-9.4,3.1c-3.9,0-6.6-0.7-8.3-2.1c-1.3-1.1-2-2.9-2.2-5.2c0-0.8,0-2,0-3.5V39.2
			c0-1.9,0.1-3.2,0.2-4.2c0.1-0.9,0.5-2,1-3.1c1.1-2.2,4.3-3.3,9.4-3.3c4.8,0,7.8,0.9,9.1,2.8c0.9,1.3,1.3,2.6,1.3,4
			c0.4-0.6,1-1.2,1.8-2.1c0.8-0.8,2.4-1.9,4.9-3.3c2.5-1.4,4.7-2.1,6.6-2.1c1.9,0,3.5,0.1,4.8,0.3C139.5,28.6,140.9,28.9,142.5,29.4
			z"/>
	</g>
	<g>
		<path d="M142.8,28.5c1,0.3,2,0.8,2.9,1.5c0.4,0.3,0.8,0.7,1.2,1.1c0.4,0.4,0.7,0.9,1,1.4c0.5,1,0.7,2.1,0.8,3.1c0.1,1,0.1,2,0,3.1
			c-0.2,2.1-0.8,4-1.5,5.9c-0.8,1.8-1.7,3.8-3.4,5.2c-0.9,0.7-1.9,1.2-3,1.5c-1.1,0.3-2.2,0.3-3.2,0.1c-1.1-0.1-2.1-0.4-3.1-0.9
			c-0.8-0.4-1.6-0.6-2.5-0.8c-0.9-0.1-1.8-0.2-2.7-0.2c-0.9,0-1.7,0.2-2.5,0.5c-1.6,0.6-3.2,1.7-4.2,3.1c-0.5,0.7-0.8,1.4-1,2.3
			c-0.1,0.4-0.1,0.8-0.1,1.3l0,1.5l0,5.8l0,11.6l0,5.8c0,1,0,2,0,3c0,0.5-0.1,1-0.1,1.5c-0.1,0.5-0.2,1.1-0.4,1.6
			c-0.2,0.5-0.4,1-0.6,1.5c-0.1,0.2-0.2,0.5-0.4,0.7c-0.2,0.3-0.3,0.5-0.5,0.7c-0.8,0.9-1.8,1.5-2.8,1.9c-2,0.7-4.1,0.9-6.1,1
			c-2,0-4,0-6-0.5c-1-0.2-2-0.6-3-1.2c-0.5-0.3-1-0.7-1.3-1.1c-0.4-0.4-0.7-0.9-1-1.4c-0.5-1-0.8-2.1-0.9-3.1c0-0.3-0.1-0.5-0.1-0.8
			c0-0.3,0-0.5,0-0.7l0-1.5l0-5.8l0-23.3l0-11.6c0-1.9,0-3.9,0.1-5.9c0-0.5,0.1-1,0.1-1.5c0.1-0.6,0.2-1.1,0.4-1.6
			c0.2-0.5,0.4-1,0.6-1.5c0.2-0.5,0.6-1.1,1-1.4c0.8-0.9,1.9-1.3,2.9-1.7c1-0.3,2-0.5,3-0.7c2-0.2,4-0.2,6-0.1c2,0.2,4.1,0.5,6,1.8
			c0.5,0.3,0.9,0.7,1.3,1.2c0.3,0.4,0.6,0.9,0.8,1.4c0.5,1,0.7,2.1,0.7,3.2l-1.7-0.5l1-1.2c0.4-0.4,0.6-0.8,1.1-1.2
			c0.9-0.8,1.8-1.3,2.7-1.9c1.8-1.1,3.6-2.1,5.7-2.8c1-0.3,2.1-0.6,3.3-0.6c1.1,0,2.1,0,3.2,0.1C138.6,27.4,140.8,27.9,142.8,28.5z
			 M142.2,30.3c-1.9-0.6-3.8-1.1-5.8-1.2c-1-0.1-2-0.1-3-0.1c-0.9,0-1.8,0.2-2.8,0.5c-1.8,0.6-3.6,1.6-5.3,2.6
			c-0.8,0.5-1.7,1.1-2.4,1.7c-0.6,0.6-1.3,1.5-1.9,2.2l-1.7,1.9l0-2.5c0-0.8-0.2-1.6-0.6-2.4c-0.2-0.4-0.4-0.8-0.7-1.1
			c-0.2-0.3-0.5-0.6-0.8-0.8c-1.3-0.9-3.2-1.3-5.1-1.4c-1.9-0.1-3.8-0.1-5.6,0.1c-1.8,0.2-3.7,0.7-4.8,1.8
			c-2.2,2.5-1.5,6.7-1.6,10.6l0,11.6l0,23.3l0,5.8l0,1.4c0,0.2,0,0.5,0,0.7c0,0.2,0,0.4,0.1,0.6c0.1,0.9,0.3,1.7,0.7,2.5
			c0.2,0.4,0.4,0.7,0.7,1c0.3,0.3,0.5,0.5,0.9,0.7c0.7,0.4,1.5,0.7,2.4,0.9c1.8,0.4,3.6,0.5,5.5,0.5c1.9-0.1,3.8-0.2,5.4-0.9
			c0.8-0.3,1.5-0.7,2-1.3c0.1-0.1,0.2-0.3,0.3-0.4c0.1-0.2,0.2-0.4,0.3-0.6c0.2-0.4,0.4-0.8,0.5-1.2c0.1-0.4,0.2-0.8,0.3-1.2
			c0.1-0.4,0.1-0.9,0.1-1.4c0-0.9,0.1-1.9,0-2.9l0-5.8l0-11.6l0-5.8l0-1.5c0-0.5,0-1.1,0.1-1.6c0.2-1.1,0.7-2.2,1.3-3
			c0.6-0.9,1.4-1.6,2.3-2.3c0.8-0.6,1.8-1.1,2.8-1.5c1-0.4,2.1-0.6,3.2-0.6c1,0,2,0,3.1,0.2c1,0.2,2.1,0.5,3,0.9
			c0.8,0.4,1.6,0.6,2.5,0.7c1.8,0.2,3.5-0.1,4.7-1.2c1.3-1.1,2.1-2.7,2.9-4.5c0.7-1.7,1.2-3.5,1.4-5.3c0.1-1.8,0-3.7-0.7-5.2
			c-0.2-0.4-0.4-0.7-0.7-1c-0.3-0.3-0.6-0.6-0.9-0.9C143.8,31,143,30.6,142.2,30.3z"/>
	</g>
</g>
<path class="st5" d="M100.4,36.8"/>
<path class="st5" d="M99.2,43.9"/>
<path class="st2" d="M105.2,89.1c-1.1-1.1-1.7-2.7-1.9-5c0-0.8,0-1.9,0-3.4V40c0-1.8,0.1-3.1,0.2-4c0.1-0.9,0.4-1.9,0.9-3
	c0.9-1.9,3.1-2.9,6.7-3.1c-0.5,0-1,0-1.5,0c-4.4,0-7.3,0.9-8.3,3c-0.5,1.1-0.7,2.1-0.8,3c-0.1,0.9-0.1,2.4-0.1,4.1v40.8
	c0,1.5,0,2.6,0,3.4c0,2.3,0.4,3.9,1.5,5c1.4,1.3,4.2,2,7.6,2c0.5,0,1.1,0,1.5,0C108.4,90.9,106.5,90.3,105.2,89.1z"/>
<path class="st2" d="M173,85.6c-3.8-3.7-5.8-9.9-5.8-18.6l-0.1-19.3c-0.9,0.1-2.2,0.3-3.4,0.5V67c0,8.7,1.3,14.1,5.9,18.6
	c3.8,3.7,9.5,5.5,16.9,5.5c0.7,0,1.3,0,1.8,0C181.6,90.8,176.5,89,173,85.6z"/>
<path class="st2" d="M157.6,47.3c-1-1.3-1.6-3-1.6-6.2s0.2-5.5,0.5-7c0.4-1.5,0.8-2.3,1.5-2.8c0.6-0.5,1.3-0.8,2.1-1l-1.4-0.2
	c-1.7,0-3,0.2-4.1,1.2c-0.7,0.6-1.2,1.4-1.5,2.8c-0.4,1.5-0.5,3.7-0.5,7s0.6,4.8,1.6,6.2c1,1.3,2.6,1.5,4.1,1.5c0.5,0,1.1,0,1.7-0.1
	C159.1,48.5,158.2,48.1,157.6,47.3z"/>
<g>
	<g>
		<path class="st4" d="M388.9,28.7c8,0,14.7,3.1,20.1,9.2c5.4,6.2,8,13.7,8,22.5v21.2c0,1.9-0.1,3.2-0.2,4.2c-0.1,0.9-0.5,2-1,3.1
			c-1.1,2.2-4.3,3.3-9.4,3.3c-5.7,0-9-1.5-9.9-4.5c-0.5-1.4-0.7-3.4-0.7-6.2V60.3c0-3.3-0.9-5.9-2.8-7.7c-1.9-1.9-4.4-2.8-7.6-2.8
			c-3.2,0-5.8,1-7.7,2.9c-2,1.9-3,4.5-3,7.6v21.4c0,1.9-0.1,3.2-0.2,4.2c-0.1,0.9-0.5,2-1.1,3.1c-1,2.2-4.1,3.3-9.3,3.3
			c-5.1,0-8.2-1.1-9.3-3.3c-0.6-1.2-0.9-2.3-1-3.2c-0.1-0.9-0.2-2.3-0.2-4.2V38.8c0-1.8,0.1-3.1,0.2-4c0.1-0.9,0.5-2,1.1-3.1
			c1.1-2,4.2-3,9.3-3c4.9,0,7.9,0.9,9.1,2.8c0.8,1.4,1.2,3,1.2,5c0.3-0.6,1-1.4,2.2-2.4c1.1-1,2.2-1.9,3.3-2.5
			C382.6,29.6,385.6,28.7,388.9,28.7z"/>
	</g>
	<g>
		<path d="M388.9,27.7c4,0,8.1,0.8,11.8,2.6c3.7,1.8,6.9,4.4,9.5,7.5c2.6,3.1,4.6,6.7,5.9,10.5c1.3,3.8,1.9,7.9,1.9,11.9
			c0,7.9,0,15.6,0,23.5c0,1-0.1,2-0.3,3.1c-0.1,0.5-0.3,1-0.5,1.5c-0.2,0.5-0.4,0.9-0.7,1.5c-0.7,1-1.7,1.7-2.7,2.2
			c-1,0.5-2,0.7-3.1,0.9c-2,0.3-4,0.4-6.1,0.3c-2-0.1-4.1-0.4-6.1-1.5c-1-0.5-1.9-1.4-2.5-2.4c-0.3-0.5-0.5-1.1-0.6-1.6
			c-0.2-0.5-0.3-1-0.3-1.6c-0.3-2-0.3-4.1-0.3-6l0-11.8l0-5.9c0-1,0-2,0-2.9c0-0.9-0.2-1.8-0.4-2.7c-0.5-1.7-1.5-3.2-2.9-4.3
			c-1.4-1.1-3.1-1.6-4.9-1.8c-1.8-0.1-3.7,0-5.3,0.7c-1.6,0.6-3.1,1.8-4.1,3.3c-1,1.5-1.5,3.2-1.5,5.1l0,5.8l0,11.8c0,2,0,3.9,0,5.9
			c0,1-0.1,2-0.2,3.1c-0.2,1.1-0.7,2.1-1.2,3l0-0.1c-0.6,1.2-1.7,2.1-2.8,2.6c-1.1,0.5-2.2,0.8-3.4,0.9c-2.3,0.3-4.4,0.3-6.7,0.2
			c-1.1-0.1-2.2-0.3-3.4-0.6c-1.1-0.3-2.3-0.9-3.2-1.8c-0.2-0.2-0.4-0.5-0.6-0.8c-0.2-0.3-0.4-0.6-0.5-0.9c-0.2-0.5-0.4-1.1-0.6-1.6
			c-0.2-0.6-0.3-1.2-0.4-1.8c-0.1-0.6-0.1-1.1-0.1-1.7c-0.1-8.7,0-17.3,0-25.9l0-12.9l0-6.5c0-1.1,0-2.2,0.1-3.3
			c0-0.5,0.1-1.2,0.3-1.8c0.2-0.6,0.4-1.1,0.7-1.7c0.1-0.3,0.3-0.5,0.4-0.8c0.2-0.3,0.4-0.6,0.6-0.8c0.5-0.5,1-0.9,1.5-1.2
			c1.1-0.6,2.2-0.9,3.4-1.1c2.3-0.4,4.5-0.4,6.7-0.3c1.1,0.1,2.2,0.2,3.4,0.5c1.1,0.3,2.3,0.7,3.3,1.5c0.3,0.2,0.5,0.4,0.7,0.7
			c0.2,0.3,0.4,0.6,0.6,0.8c0.3,0.5,0.5,1.1,0.7,1.7c0.4,1.1,0.5,2.3,0.5,3.5l-1.8-0.5c0.5-0.8,1-1.3,1.5-1.8c0.5-0.5,1.1-1,1.6-1.5
			c1.1-1,2.4-1.8,3.6-2.6C382.9,28.5,385.9,27.7,388.9,27.7z M388.9,29.7c-2.7,0-5.3,0.7-7.6,2.1c-1.2,0.7-2.3,1.5-3.3,2.4
			c-0.5,0.4-1,0.9-1.5,1.4c-0.5,0.5-0.9,1-1.2,1.4l-1.8,3.1l0-3.6c0-1-0.1-2-0.4-2.9c-0.1-0.5-0.3-0.9-0.5-1.3
			c-0.1-0.2-0.2-0.4-0.3-0.5c-0.1-0.2-0.3-0.3-0.4-0.4c-1.4-1.1-3.5-1.4-5.6-1.5c-2.1-0.1-4.2-0.1-6.2,0.3c-1,0.2-2,0.4-2.8,0.9
			c-0.4,0.2-0.8,0.5-1,0.8c-0.1,0.2-0.3,0.3-0.4,0.5c-0.1,0.2-0.2,0.4-0.4,0.6c-0.2,0.4-0.4,0.9-0.5,1.3c-0.1,0.5-0.2,0.9-0.2,1.4
			c-0.1,1-0.1,2.1-0.1,3.1l0,6.5l0,12.9c0,8.6,0,17.3,0,25.8c0,0.5,0.1,1,0.1,1.5c0,0.5,0.1,0.9,0.3,1.4c0.1,0.5,0.3,0.9,0.5,1.4
			c0.1,0.2,0.2,0.4,0.3,0.6c0.1,0.2,0.2,0.3,0.4,0.5c0.6,0.6,1.5,1,2.4,1.3c0.9,0.3,1.9,0.5,3,0.6c2.1,0.2,4.2,0.1,6.2-0.1
			c2-0.3,4-1,4.7-2.5l0,0l0,0c0.5-0.8,0.8-1.6,1-2.4c0.1-0.8,0.2-1.8,0.2-2.8c0-1.9,0-3.9,0-5.9l0-11.8l0-5.9
			c0.1-2.1,0.6-4.2,1.8-6.1c1.2-1.8,2.9-3.2,5-4c2-0.8,4.1-1,6.2-0.8c2.1,0.2,4.2,0.8,5.9,2.2c1.7,1.3,3,3.2,3.6,5.3
			c0.3,1,0.4,2.1,0.5,3.1c0,1.1,0,2,0,3l0,5.9l0,11.8c0,2,0,3.9,0.3,5.7c0.1,0.5,0.2,0.9,0.3,1.3c0.1,0.5,0.3,0.8,0.5,1.2
			c0.4,0.7,1,1.2,1.7,1.6c1.5,0.8,3.4,1.1,5.2,1.3c1.9,0.1,3.8,0.1,5.6-0.2c1.8-0.3,3.6-0.9,4.4-2.2c0.2-0.3,0.4-0.8,0.6-1.2
			c0.2-0.4,0.3-0.8,0.4-1.3c0.2-0.8,0.2-1.8,0.3-2.7c0-7.8,0-15.7,0-23.5c0-3.8-0.6-7.6-1.8-11.2c-1.2-3.6-3.1-6.9-5.6-9.9
			c-2.4-2.9-5.4-5.4-8.8-7C396.5,30.4,392.7,29.7,388.9,29.7z"/>
	</g>
</g>
<path class="st3" d="M399.8,89.5c-0.5-1.3-0.7-2.7-0.7-5.3V63.4c0-4.9-1.4-7.5-3.4-9.3c-0.1-0.1-0.2-0.2-0.3-0.3
	c1,1.7,1.6,3.9,1.6,7.3v20.8c0,2.7,0.2,4,0.6,5.3c0.4,1.2,1.1,2.1,2.3,2.6C399.9,89.8,399.9,89.7,399.8,89.5z"/>
<path class="st3" d="M359.2,88.4c-0.5-0.6-0.9-2.2-1-3.1c-0.1-0.9-0.3-2.2-0.3-4l0.2-41.2c0-1.7,0-3.5,0.1-4.4
	c0.1-0.9,0.3-1.9,0.9-3c0.9-1.7,3.1-2.5,6.9-2.6c-0.5,0-1,0-1.6,0c-4.9,0-7.6,0.7-8.7,2.7c-0.6,1.1-0.8,2.1-0.9,3
	c-0.1,0.9-0.1,2.7-0.1,4.4l-0.2,41.2c0,1.8,0.1,3.1,0.3,4c0.1,0.9,0.4,2,1,3.1c1.1,2.1,4.2,2.6,9,2.6c0.6,0,1.2-0.1,1.7-0.1
	C362.7,90.6,360.1,90.2,359.2,88.4z"/>
<path class="st3" d="M401,87.3c-0.5-1.3-0.6-2.7-0.6-5.3V61.1c0-4.9-1.3-7.5-3.1-9.3c-1.8-1.8-5.5-3.2-8.5-3.2c-0.6,0-1.2,0-1.7,0.1
	c2.6,0.4,5.4,1.6,6.9,3.1c1.8,1.8,3.1,4.4,3.1,9.3v20.8c0,2.7,0.2,4,0.6,5.3c0.8,2.9,4.1,3.7,9.6,3.7c0.5,0,1,0,1.4,0
	C404.3,90.7,401.7,89.8,401,87.3z"/>
<path class="st1" d="M427.2,86.6c-1.5-1-2.3-2.5-2.3-4.6c0-2.1,1.5-5.3,4.6-9.5c0.9-1.4,2.3-2.1,4.3-2.1c2,0,4.6,1,8,3
	c3.4,2,6.4,3,9.2,3c4.9,0,7.4-1,7.4-2.9c0-1.5-2.7-2.7-8.1-3.4c-5.1-0.7-10.1-2.6-15.1-5.7c-2.3-1.4-4.3-3.7-5.8-6.8
	c-1.5-3.1-2.3-6.8-2.3-11c0-12.7,8.7-19.1,26.2-19.1c5.7,0,11.6,1.4,17.6,4.1c2.8,1.3,4.2,2.9,4.2,4.8c0,1.9-0.9,4.3-2.7,7.1
	c-1.8,2.8-3.6,4.2-5.4,4.2c-1,0-2.8-0.6-5.4-1.8c-2.6-1.2-5.5-1.8-8.5-1.8c-4.8,0-7.1,0.9-7.1,2.7c0,2.4,2.7,4,8.2,4.7
	c5.3,0.6,10.5,2.1,15.5,4.6c2.3,1.1,4.3,3.1,5.9,5.9c1.6,2.8,2.4,6.3,2.4,10.4c0,4.2-0.8,7.7-2.4,10.7c-1.6,2.9-3.8,5.1-6.6,6.6
	c-5.2,2.5-11.6,3.7-19.4,3.7C441.8,93.4,434.3,91.1,427.2,86.6z"/>
<path class="st2" d="M436.4,63.9c7.3,3.9,10.5,4.5,15.8,5.3c4.9,0.7,7.2,2.7,7.2,4.2c0,2.5-2.5,3.8-6.3,4.1c0.5,0,0.9,0.1,1.4,0.1
	c4.8,0,8-1.3,8-4.1c0-1.5-2.2-3.5-7.2-4.2c-5.3-0.8-8.6-1.3-15.8-5.3c-2.4-1.3-4.4-3.4-5.9-6.4c-1.5-3-2.2-6.5-2.3-10.7
	c0-12.1,7.7-17.7,23.4-18.1c-0.4,0-0.7,0-1.1,0c-17.1,0-25.5,5.5-25.5,18.2c0,4.1,0.8,7.7,2.3,10.7C432,60.5,434,62.6,436.4,63.9z"
	/>
<path class="st2" d="M431.6,86.1c-1.5-0.9-2.5-1.8-2.5-3.8c0-2,1-4.1,3.8-8.3c0.7-1,1.3-1.7,2.3-2.1c-0.4-0.1-0.9-0.2-1.3-0.2
	c-2.1-0.2-3.1,0.8-4.1,2.3c-2.9,4.2-3.8,6.3-3.8,8.3c0,2,1,2.9,2.5,3.8c7,4.3,14,6.1,21.6,6.1c0.5,0,1,0,1.5,0
	C444.6,91.9,438.1,90.1,431.6,86.1z"/>
<path class="st6" d="M269.2,49.4c-2.7,2-5.3,3-8,3c-2.7,0-5.3-1-7.8-3c-2.6-2-3.9-4.9-3.9-8.8c0-3.9,1.2-6.9,3.7-8.9
	c0.5-0.4,1-0.7,1.5-1c-4.5-2.3-9.4-3.4-14.6-3.4c-8.7,0-16.4,3.1-23.2,9.4c-6.8,6.3-10.1,14.2-10.1,23.9c0,6.4,1.7,12.2,5.1,17.3
	c3.4,5.1,7.6,9,12.6,11.6c5,2.6,10.1,3.9,15.5,3.9c5.3,0,10.4-1.2,15.4-3.7c5-2.5,9.2-6.3,12.6-11.5c3.5-5.2,5.2-11.1,5.2-17.8
	c0-4.6-0.8-8.9-2.3-12.7C270.4,48.4,269.9,49,269.2,49.4z"/>
<path class="st2" d="M220.4,48.9c-1.1,0-2.2,0.4-3.2,1.2c-1,0.8-1.5,1.9-1.5,3.5c0,1.5,0.5,2.7,1.5,3.5c1,0.8,3.9,1.8,3.1,1.2
	C214.1,52.9,220.4,48.9,220.4,48.9z"/>
<path class="st7" d="M241.9,40.6c0,3.5-2.8,6.3-6.3,6.3c-3.5,0-6.3-2.8-6.3-6.3c0-3.5,2.8-6.3,6.3-6.3
	C239,34.3,241.9,37.1,241.9,40.6z"/>
<path class="st3" d="M231.7,40.6c0-2.6,2-4.8,4.5-5.1c-0.2,0-0.4,0-0.6,0c-2.8,0-5.1,2.3-5.1,5.1c0,2.8,2.3,5.1,5.1,5.1
	c0.2,0,0.4,0,0.6,0C233.6,45.3,231.7,43.2,231.7,40.6z"/>
<path class="st8" d="M227.2,53.7c0,3.5-2.8,6.3-6.3,6.3c-3.5,0-6.3-2.8-6.3-6.3c0-3.5,2.8-6.3,6.3-6.3
	C224.4,47.4,227.2,50.2,227.2,53.7z"/>
<path class="st9" d="M229.2,72.6c0,3.5-2.8,6.3-6.3,6.3c-3.5,0-6.3-2.8-6.3-6.3c0-3.5,2.8-6.3,6.3-6.3
	C226.4,66.4,229.2,69.2,229.2,72.6z"/>
<path class="st10" d="M262.4,70.2c0,2.6-2.1,4.7-4.7,4.7c-2.6,0-4.7-2.1-4.7-4.7c0-2.6,2.1-4.7,4.7-4.7
	C260.3,65.5,262.4,67.6,262.4,70.2z"/>
<path class="st11" d="M246.3,80.3c0,3.5-2.8,6.3-6.3,6.3c-3.5,0-6.3-2.8-6.3-6.3c0-3.5,2.8-6.3,6.3-6.3
	C243.5,74,246.3,76.8,246.3,80.3z"/>
<path class="st3" d="M217,53.7c0-2.6,2-4.8,4.5-5.1c-0.2,0-0.4,0-0.6,0c-2.8,0-5.1,2.3-5.1,5.1c0,2.8,2.3,5.1,5.1,5.1
	c0.2,0,0.4,0,0.6,0C218.9,58.4,217,56.3,217,53.7z"/>
<path class="st3" d="M218.9,72.6c0-2.6,2-4.8,4.5-5.1c-0.2,0-0.4,0-0.6,0c-2.8,0-5.1,2.3-5.1,5.1c0,2.8,2.3,5.1,5.1,5.1
	c0.2,0,0.4,0,0.6,0C220.8,77.4,218.9,75.2,218.9,72.6z"/>
<path class="st3" d="M236,80.3c0-2.6,2-4.8,4.5-5.1c-0.2,0-0.4,0-0.6,0c-2.8,0-5.1,2.3-5.1,5.1c0,2.8,2.3,5.1,5.1,5.1
	c0.2,0,0.4,0,0.6,0C237.9,85,236,82.9,236,80.3z"/>
<path class="st2" d="M228.6,88.4c-4.8-2.5-8.8-6.2-12.1-11.1c-3.3-4.9-4.9-10.4-4.9-16.6c0-9.3,3.2-16.9,9.7-22.9
	c6-5.6,12.9-8.6,20.5-9c-0.6,0-1.2,0-1.8,0c-8.3,0-15.8,3-22.2,9c-6.5,6-9.7,13.7-9.7,22.9c0,6.2,1.6,11.7,4.9,16.6
	c3.3,4.9,7.3,8.6,12.1,11.1c4.8,2.5,9.7,3.8,14.8,3.8c0.6,0,1.2,0,1.8-0.1C237.2,91.9,232.9,90.6,228.6,88.4z"/>
<polygon class="st2" points="58.1,56.8 62.1,56.7 52.2,36.2 48.2,36.3 "/>
<path class="st12" d="M256.3,50.9c-0.9-0.9-1.8-1.8-2.7-2.7c1.2-1.5,2.4-3.1,3.6-4.5c3.3-4.1,6.9-7.9,10.7-11.5
	c3.8-3.6,7.7-6.9,11.9-10c0.2-0.2,0.4-0.4,0.6-0.5c0.9-0.5,1.8-0.4,2.4,0.3c0.6,0.6,0.6,1.7,0,2.4c-2.5,3.1-4.8,6.2-7.5,9.2
	c-2.8,3.1-5.8,6.1-8.8,9c-2,2-4.3,3.8-6.4,5.6C258.8,49,257.6,49.9,256.3,50.9z"/>
<path class="st13" d="M254.3,50.2c0.4,0.4,0.9,0.8,1.2,1.3c0.1,0.1,0.2,0.4,0.2,0.6c-0.5,1.8-1.3,3.5-2.6,5
	c-0.7,0.8-1.7,1.3-2.7,1.6c-1,0.3-2,0.4-3,0.7c-0.7,0.2-1.4,0.4-2.1,0.5c-0.2,0-0.4,0-0.5-0.1c-0.1-0.1-0.1-0.3-0.1-0.5
	c0.3-1.3,0.7-2.5,0.9-3.8c0.4-2.8,2-4.7,4.5-5.8c0.7-0.3,1.5-0.6,2.3-0.9c0.2-0.1,0.5,0,0.7,0.2C253.5,49.4,253.9,49.8,254.3,50.2z"
	/>
<path class="st2" d="M163.7,30.7l3.4,0.4V17.8c0-1.8,0-3.5,0.1-4.3c0.1-0.9,0.3-1.4,0.9-2.4c0.8-1.7,3.2-2.6,6.7-2.9
	c-0.5,0-1-0.1-1.6-0.1c-4.6,0-7.6,0.8-8.5,2.7c-0.6,1-0.7,1.8-0.8,2.7c-0.1,0.9-0.1,2.5-0.1,4.3V30.7z"/>
</svg>
